<?xml version="1.0"?>
<svg viewBox="168 0 50 75" xmlns="http://www.w3.org/2000/svg" fill="#ffffff">
 <g display="inline">
  <title>Layer 1</title>
  <g id="svg_1">
   <g>
    <rect height="81.6" width="81.6" fill="#143C6B" fill-opacity="0" y="0" x="178.8"/>
    <g>
     <path d="m199.199997,27.29999h-14v-3.19998c2.300018,-0.20001 3.100006,-0.30002 4.899994,-0.60001c1.800018,-0.29999 3.400024,-0.70001 4.800018,-1.39999c1.399994,-0.70001 2.5,-1.70001 3.399994,-3.10001c0.899994,-1.29999 1.600006,-3.10001 2,-5.39999h4.299988v54.39999h-5.299988v-40.70001l-0.100006,0z" fill="#FFFFFF"/>
     <path d="m207.899994,38.900002h17.700012c2.099991,0 4.099991,-0.200001 5.899994,-0.600002c1.800003,-0.399998 3.399994,-1 4.699997,-1.899998c1.300003,-0.900002 2.400009,-2 3.199997,-3.400002c0.800003,-1.4 1.200012,-3 1.200012,-4.9c0,-2 -0.400009,-3.700001 -1.200012,-5c-0.799988,-1.300001 -1.899994,-2.300001 -3.299988,-3.1c-1.400009,-0.799999 -2.900009,-1.299999 -4.700012,-1.6c-1.799988,-0.299999 -3.599991,-0.5 -5.5,-0.5h-18v-4.4h17.900009c6.599991,0 11.699997,1.1 15.199997,3.4c3.5,2.200001 5.300003,5.9 5.300003,10.9c0,3.400002 -0.800003,6.100002 -2.300003,8.200001c-1.5,2 -4,3.700001 -7.5,5.099998c1.800003,0.600002 3.199997,1.400002 4.199997,2.400002c1,1.099998 1.800003,2.299999 2.300003,3.599998c0.5,1.400002 0.800003,2.800003 1,4.300003c0.100006,1.5 0.199997,3 0.300003,4.399998c0.099991,2.100002 0.199997,3.799999 0.300003,5.100002c0.099991,1.399998 0.299988,2.5 0.5,3.299995c0.199997,0.900002 0.5,1.5 0.699997,2c0.300003,0.5 0.699997,1.300003 1,1.600006l0,0h-6.5c-0.600006,-0.900002 -1,-2.200005 -1.300003,-3.800003c-0.300003,-1.599998 -0.399994,-3.299999 -0.600006,-5.099998c-0.099991,-1.800003 -0.299988,-3.5 -0.299988,-5.100002c-0.100006,-1.700001 -0.200012,-3 -0.5,-4.099998c-0.300003,-1.5 -0.900009,-2.600002 -1.600006,-3.5c-0.800003,-0.900002 -1.699997,-1.5 -2.699997,-2c-1.100006,-0.5 -2.199997,-0.799999 -3.5,-0.900002c-1.300003,-0.200001 -2.699997,-0.200001 -4,-0.200001h-17.900009v-4.199997l0,0l0,0l0,0l0,0l0,0l0,0l0,0l0,0l0,0l0,0l0,0l0,0z" fill="#92C039"/>
    </g>
   </g>
  </g>
 </g>
</svg>
