<svg version="1.1" id="Layer_1" xmlns="http://www.w3.org/2000/svg" xmlns:xlink="http://www.w3.org/1999/xlink" viewBox="-51.2 -51.2 614.40 614.40" xml:space="preserve" width="34px" height="34px" fill="#C0D1C7" transform="rotate(0)matrix(1, 0, 0, 1, 0, 0)"><g id="SVGRepo_bgCarrier" stroke-width="0" transform="translate(256,256), scale(0)"><rect x="-51.2" y="-51.2" width="614.40" height="614.40" rx="307.2" fill="#7ed0ec" strokewidth="0"></rect></g><g id="SVGRepo_tracerCarrier" stroke-linecap="round" stroke-linejoin="round" stroke="#CCCCCC" stroke-width="1.024"></g><g id="SVGRepo_iconCarrier"> <g> <circle style="fill:#C0D1C7;" cx="64.091" cy="146.468" r="15.992"></circle> <circle style="fill:#C0D1C7;" cx="200.028" cy="226.428" r="15.992"></circle> <circle style="fill:#C0D1C7;" cx="319.968" cy="114.484" r="15.992"></circle> <circle style="fill:#C0D1C7;" cx="447.905" cy="162.46" r="15.992"></circle> </g> <g> <rect x="287.984" y="330.387" style="fill:#C0D1C7;" width="63.969" height="167.917"></rect> <rect x="415.921" y="410.348" style="fill:#C0D1C7;" width="63.969" height="87.957"></rect> <rect x="32.105" y="330.387" style="fill:#C0D1C7;" width="63.969" height="167.917"></rect> <rect x="160.047" y="394.356" style="fill:#C0D1C7;" width="63.969" height="103.949"></rect> </g> <rect x="415.921" y="298.403" style="fill:#C0D1C7;" width="63.969" height="111.945"></rect> <rect x="415.921" y="266.409" style="fill:#FFFFFF;" width="63.969" height="31.985"></rect> <rect x="287.984" y="250.427" style="fill:#C0D1C7;" width="63.969" height="79.963"></rect> <g> <rect x="287.984" y="218.432" style="fill:#FFFFFF;" width="63.969" height="31.985"></rect> <rect x="160.047" y="330.387" style="fill:#FFFFFF;" width="63.969" height="31.985"></rect> </g> <g> <rect x="160.047" y="362.372" style="fill:#C0D1C7;" width="63.969" height="31.985"></rect> <rect x="32.105" y="282.411" style="fill:#C0D1C7;" width="63.969" height="47.977"></rect> </g> <rect x="32.105" y="250.427" style="fill:#FFFFFF;" width="63.969" height="31.985"></rect> <rect y="491.984" width="512" height="15.802"></rect> <path d="M447.909,138.57c-6.573,0-12.533,2.669-16.858,6.977l-87.844-36.602c-2.506-10.512-11.971-18.354-23.239-18.354 c-13.175,0-23.893,10.718-23.893,23.894c0,3.708,0.849,7.222,2.363,10.357l-83.189,83.188c-4.137-3.428-9.444-5.492-15.224-5.492 c-6.291,0-12.019,2.448-16.29,6.437l-95.999-59.077c0.161-1.12,0.25-2.264,0.25-3.428c0-13.175-10.718-23.893-23.894-23.893 c-13.175,0-23.893,10.718-23.893,23.893c0,13.175,10.718,23.893,23.893,23.893c6.291,0,12.019-2.448,16.29-6.437l96.001,59.078 c-0.161,1.12-0.25,2.264-0.25,3.428c0,13.175,10.718,23.893,23.893,23.893c13.175,0,23.894-10.718,23.894-23.893 c0-1.477-0.141-2.92-0.399-4.325l86.093-86.092c3.135,1.514,6.649,2.363,10.357,2.363c9.299,0,17.368-5.343,21.315-13.116 l82.883,34.535c-0.098,0.875-0.153,1.764-0.153,2.665c0,13.175,10.718,23.894,23.894,23.894c13.175,0,23.893-10.718,23.893-23.894 C471.803,149.288,461.084,138.57,447.909,138.57z M64.091,154.562c-4.462,0-8.091-3.629-8.091-8.091s3.629-8.091,8.091-8.091 s8.092,3.629,8.092,8.091S68.552,154.562,64.091,154.562z M200.027,234.524c-4.462,0-8.091-3.629-8.091-8.091 c0-4.462,3.629-8.092,8.091-8.092c4.462,0,8.092,3.629,8.092,8.092C208.117,230.894,204.488,234.524,200.027,234.524z M319.969,122.578c-4.462,0-8.091-3.629-8.091-8.091c0-4.462,3.629-8.092,8.091-8.092s8.092,3.629,8.092,8.092 C328.061,118.947,324.432,122.578,319.969,122.578z M447.909,170.555c-4.462,0-8.092-3.629-8.092-8.092 c0-4.462,3.629-8.091,8.092-8.091c4.462,0,8.091,3.629,8.091,8.091C456,166.925,452.371,170.555,447.909,170.555z"></path> <rect x="31.605" y="4.214" style="fill:#C0D1C7;" width="96.922" height="15.802"></rect> <rect x="31.605" y="27.391" width="16.856" height="15.802"></rect> <rect x="55.835" y="27.391" style="fill:#C0D1C7;" width="15.802" height="15.802"></rect> <rect x="80.066" y="27.391" width="15.802" height="15.802"></rect> <rect x="31.605" y="51.621" style="fill:#C0D1C7;" width="40.033" height="15.802"></rect> <rect x="31.605" y="75.852" style="fill:#C0D1C7;" width="16.856" height="15.802"></rect> <path d="M23.177,482.502h15.802V339.226H87.44v143.276h15.802V243.358H23.177V482.502z M38.979,323.424v-31.605H87.44v31.605H38.979 z M87.44,259.16v16.856H38.979V259.16H87.44z"></path> <path d="M150.65,323.424v159.078h15.802V403.49h48.461v79.012h15.802V323.424H150.65z M214.914,339.226v15.802h-48.461v-15.802 H214.914z M166.453,387.687v-16.856h48.461v16.856H166.453z"></path> <path d="M279.177,482.502h15.802V339.226h48.461v143.276h15.802V211.753h-80.066V482.502z M294.979,323.424V259.16h48.461v64.263 H294.979z M343.44,227.556v15.802h-48.461v-15.802H343.44z"></path> <path d="M406.65,259.16v223.342h15.802v-63.21h48.461v63.21h15.802V259.16H406.65z M470.914,274.963v16.856h-48.461v-16.856H470.914 z M422.453,403.49v-95.868h48.461v95.868H422.453z"></path> </g></svg>